<svg xmlns="http://www.w3.org/2000/svg" viewBox="0 0 14 12"><defs><style>.cls-1{fill:#fff;}.cls-2{fill:#333;}</style></defs><g id="レイヤー_2" data-name="レイヤー 2"><g id="shared_asset_images_viz-toolbar_checkbox_selected_normal" data-name="shared asset images viz-toolbar checkbox selected normal"><path class="cls-1" d="M12.8,7H12V5a1.08,1.08,0,0,0-1-1,1.08,1.08,0,0,0,1-1V1a1.08,1.08,0,0,0-1-1H1A1.08,1.08,0,0,0,0,1V3A1.08,1.08,0,0,0,1,4,1.08,1.08,0,0,0,0,5V7A1.08,1.08,0,0,0,1,8,1.08,1.08,0,0,0,0,9v2a1.08,1.08,0,0,0,1,1H4a1.08,1.08,0,0,0,1-1V9A1.08,1.08,0,0,0,4,8H7v.2a1.07,1.07,0,0,0,.2.6l.1.1,2.3,2.7a1.09,1.09,0,0,0,.9.4,1.49,1.49,0,0,0,.9-.4l2.3-2.7.1-.1a1.42,1.42,0,0,0,.2-.6A1.22,1.22,0,0,0,12.8,7ZM9,5V7H8V5A1.08,1.08,0,0,0,7,4h3A1.08,1.08,0,0,0,9,5Z"/><path class="cls-2" d="M1,1H11V3H1ZM1,5H7V7H1ZM1,9H4v2H1Zm9.6,1.9,2.3-2.7c.1-.1,0-.2-.1-.2H11V5H10V8H8.2c-.1,0-.2.1-.1.2l2.3,2.7C10.4,11,10.6,11,10.6,10.9Z"/></g></g></svg>