<svg xmlns="http://www.w3.org/2000/svg" viewBox="0 0 12.77 13"><defs><style>.cls-1{fill:#fff;}.cls-2{fill:#333;}.cls-3{fill:#231f20;}</style></defs><g id="レイヤー_2" data-name="レイヤー 2"><g id="shared_asset_images_viz-toolbar_checkbox_selected_normal" data-name="shared asset images viz-toolbar checkbox selected normal"><path class="cls-1" d="M12.67,6.7a1.23,1.23,0,0,0-1.1-.7h-.8V4a.94.94,0,0,0-1-1h-1a.94.94,0,0,0-1,1V6H7a.9.9,0,0,0-.5.1V5.7L4.67.7a1,1,0,0,0-.9-.7h-1a1,1,0,0,0-.9.7l-1.8,5a1,1,0,0,0,.1.9c.1,0,.1.1.2.1a.37.37,0,0,0-.1.3V8a.94.94,0,0,0,1,1h.5L.57,10.3a1.08,1.08,0,0,0-.3.7v1a.94.94,0,0,0,1,1h4a.94.94,0,0,0,1-1V11a.94.94,0,0,0-1-1h-.5L6,8.7a.86.86,0,0,0,.3-.6l2,2.4a1.1,1.1,0,0,0,1,.5,1.1,1.1,0,0,0,1-.5l2.2-2.6A1.06,1.06,0,0,0,12.67,6.7Z"/><path class="cls-2" d="M9.37,9.9l2.3-2.7c.1-.1,0-.2-.1-.2H9.77V4h-1V7H7c-.1,0-.2.1-.1.2l2.3,2.7C9.17,10,9.37,10,9.37,9.9Z"/><path class="cls-3" d="M1.27,12V11L4,8H1.27V7h4V8l-2.7,3h2.7v1ZM.87,6l1.8-5h1.2l1.8,5h-1l-.4-1.2h-2L1.87,6Zm1.7-2H4l-.7-2Z"/></g></g></svg>