<svg id="レイヤー_1" data-name="レイヤー 1" xmlns="http://www.w3.org/2000/svg" viewBox="0 0 6.56 13.01"><defs><style>.cls-1{fill:#fff;}.cls-2{fill:#231f20;}.cls-3{fill:#333;}</style></defs><g id="レイヤー_2" data-name="レイヤー 2"><g id="shared_asset_images_viz-toolbar_checkbox_selected_normal" data-name="shared asset images viz-toolbar checkbox selected normal"><path class="cls-1" d="M5.27,7l1-2a.94.94,0,0,0-.88-1H4.77L6,2.7A.89.89,0,0,0,6.3,2V1a.94.94,0,0,0-.88-1H1.3a1.08,1.08,0,0,0-1,1V2a.94.94,0,0,0,.88,1H1.8L.57,4.3a1.09,1.09,0,0,0-.3.7V6a.94.94,0,0,0,.88,1h.52L.07,11.7a1,1,0,0,0,.1.9A.91.91,0,0,0,1,13h.8a1,1,0,0,0,.9-.7l.2-.6h.5l.2.6a1.49,1.49,0,0,0,1.1.7h.9a1.23,1.23,0,0,0,.8-.4,1,1,0,0,0,.1-.9L4.87,7h.4a1.62,1.62,0,0,0,.3.9S5.94,6.67,5.27,7Z" transform="translate(-0.01 0)"/><path class="cls-2" d="M1.27,6V5L4,2H1.27V1h4V2L2.57,5h2.7V6Z" transform="translate(-0.01 0)"/><path class="cls-3" d="M.87,12l1.8-5h1.2l1.8,5h-1l-.4-1.2h-2L1.87,12Zm1.7-2H4L3.3,8Z" transform="translate(-0.01 0)"/></g></g></svg>