<svg xmlns="http://www.w3.org/2000/svg" viewBox="0 0 12 12"><defs><style>.cls-1{fill:#fff;}.cls-2{fill:#333;}</style></defs><g id="レイヤー_2" data-name="レイヤー 2"><g id="レイヤー_1-2" data-name="レイヤー 1"><g id="レイヤー_2-2" data-name="レイヤー 2"><g id="shared_asset_images_viz-toolbar_checkbox_selected_normal" data-name="shared asset images viz-toolbar checkbox selected normal"><path class="cls-1" d="M6.2,3.8l.1.1.1.1H4A1.08,1.08,0,0,0,5,3V1A1.08,1.08,0,0,0,4,0S0,.5,0,1V3A1.08,1.08,0,0,0,1,4,1.08,1.08,0,0,0,0,5V7A1.08,1.08,0,0,0,1,8,1.08,1.08,0,0,0,0,9v2a1.08,1.08,0,0,0,1,1H11a1.08,1.08,0,0,0,1-1V9a1.08,1.08,0,0,0-1-1S8,7.5,8,7V5.9S6.07,3.62,6.2,3.8Z"/><path class="cls-2" d="M1,9H11v2H1ZM1,5H7V7H1ZM1,1H4V3H1Z"/></g></g></g></g></svg>