<svg xmlns="http://www.w3.org/2000/svg" viewBox="0 0 12.27 13"><defs><style>.cls-1{fill:#fff;}.cls-2{fill:#231f20;}.cls-3{fill:#333;}</style></defs><g id="レイヤー_2" data-name="レイヤー 2"><g id="shared_asset_images_viz-toolbar_checkbox_selected_normal" data-name="shared asset images viz-toolbar checkbox selected normal"><path class="cls-1" d="M12.17,6.7a1.23,1.23,0,0,0-1.1-.7h-.8V4a.94.94,0,0,0-1-1h-1a.94.94,0,0,0-1,1V6h-1V5a.94.94,0,0,0-1-1h-.5L6,2.7a.91.91,0,0,0,.3-.7V1a.94.94,0,0,0-1-1h-4a1.08,1.08,0,0,0-1,1V2a.94.94,0,0,0,1,1h.5L.57,4.3a1.08,1.08,0,0,0-.3.7V6a.94.94,0,0,0,1,1h.4L.07,11.7a1,1,0,0,0,.1.9A.91.91,0,0,0,1,13h.8a1,1,0,0,0,.9-.7l.2-.6h.5l.2.6a1.51,1.51,0,0,0,1.1.7h.9a1.23,1.23,0,0,0,.8-.4,1,1,0,0,0,.1-.9L4.87,7h.4a1.61,1.61,0,0,0,.3.9l2.2,2.6a1.1,1.1,0,0,0,1,.5,1.1,1.1,0,0,0,1-.5L12,7.9A1.06,1.06,0,0,0,12.17,6.7Z"/><path class="cls-2" d="M1.27,6V5L4,2H1.27V1h4V2L2.57,5h2.7V6Z"/><path class="cls-3" d="M8.87,9.9l2.3-2.7c.1-.1,0-.2-.1-.2H9.27V4h-1V7H6.47c-.1,0-.2.1-.1.2l2.3,2.7C8.67,10,8.87,10,8.87,9.9ZM.87,12l1.8-5h1.2l1.8,5h-1l-.4-1.2h-2L1.87,12Zm1.7-2H4l-.7-2Z"/></g></g></svg>