<svg xmlns="http://www.w3.org/2000/svg" viewBox="0 0 13 12"><defs><style>.cls-1{fill:#fff;}.cls-2{fill:#333;}</style></defs><g id="レイヤー_2" data-name="レイヤー 2"><g id="shared_asset_images_viz-toolbar_checkbox_selected_normal" data-name="shared asset images viz-toolbar checkbox selected normal"><path class="cls-1" d="M11.8,2H11V1a1.08,1.08,0,0,0-1-1H9A1.08,1.08,0,0,0,8,1V2H7.2A1.16,1.16,0,0,0,6,3.2a1.07,1.07,0,0,0,.2.6l.1.1.1.1H4A1.08,1.08,0,0,0,5,3V1A1.08,1.08,0,0,0,4,0S0,.5,0,1V3A1.08,1.08,0,0,0,1,4,1.08,1.08,0,0,0,0,5V7A1.08,1.08,0,0,0,1,8,1.08,1.08,0,0,0,0,9v2a1.08,1.08,0,0,0,1,1H11a1.08,1.08,0,0,0,1-1V9a1.08,1.08,0,0,0-1-1S8,7.5,8,7V5.9l.6.7a1.09,1.09,0,0,0,.9.4,1.49,1.49,0,0,0,.9-.4l2.3-2.7.1-.1a1.42,1.42,0,0,0,.2-.6A1.16,1.16,0,0,0,11.8,2Z"/><path class="cls-2" d="M1,9H11v2H1ZM1,5H7V7H1ZM1,1H4V3H1ZM9.6,5.9l2.3-2.7c.1-.1,0-.2-.1-.2H10V1H9V3H7.2c-.1,0-.2.1-.1.2L9.4,5.9C9.4,6,9.6,6,9.6,5.9Z"/></g></g></svg>