<svg id="レイヤー_1" data-name="レイヤー 1" xmlns="http://www.w3.org/2000/svg" viewBox="0 0 6.8 13"><defs><style>.cls-1{fill:#fff;}.cls-2{fill:#231f20;}</style></defs><g id="レイヤー_2" data-name="レイヤー 2"><g id="shared_asset_images_viz-toolbar_checkbox_selected_normal" data-name="shared asset images viz-toolbar checkbox selected normal"><path class="cls-1" d="M6.3,8.1a.83.83,0,0,1-.3.6L4.77,10h.62a.94.94,0,0,1,.88,1v1.12a.94.94,0,0,1-1,.88H1.15a.94.94,0,0,1-.88-1V11a1.09,1.09,0,0,1,.3-.7L1.77,9H1.15A.94.94,0,0,1,.27,8V7a.37.37,0,0,1,.1-.3c-.1,0-.1-.1-.2-.1a1,1,0,0,1-.1-.9l1.8-5a1,1,0,0,1,.9-.7h1a1,1,0,0,1,.9.7l1.83,5v.4C6.61,6,6.69,6,6.74,6s0,.79-.44,2.09Z" transform="translate(-0.01)"/><path class="cls-2" d="M1.27,12V11L4,8H1.27V7h4V8l-2.7,3h2.7v1ZM.87,6l1.8-5h1.2l1.8,5h-1l-.4-1.2h-2L1.87,6Zm1.7-2H4L3.3,2Z" transform="translate(-0.01)"/></g></g></svg>