<svg xmlns="http://www.w3.org/2000/svg" viewBox="0 0 12 12"><defs><style>.cls-1{fill:#fff;}.cls-2{fill:#333;}</style></defs><g id="レイヤー_2" data-name="レイヤー 2"><g id="レイヤー_1-2" data-name="レイヤー 1"><g id="レイヤー_2-2" data-name="レイヤー 2"><g id="レイヤー_1-2-2" data-name="レイヤー 1-2"><g id="レイヤー_2-2-2" data-name="レイヤー 2-2"><g id="shared_asset_images_viz-toolbar_checkbox_selected_normal" data-name="shared asset images viz-toolbar checkbox selected normal"><path class="cls-1" d="M8,6.1V5c0-.5,3-1,3-1a1.08,1.08,0,0,0,1-1V1a1.08,1.08,0,0,0-1-1H1A1.08,1.08,0,0,0,0,1V3A1.08,1.08,0,0,0,1,4,1.08,1.08,0,0,0,0,5V7A1.08,1.08,0,0,0,1,8,1.08,1.08,0,0,0,0,9v2c0,.5,4,1,4,1a1.08,1.08,0,0,0,1-1V9A1.08,1.08,0,0,0,4,8H6.4l-.1.1-.1.1C6.07,8.38,8,6.1,8,6.1Z"/><path class="cls-2" d="M1,1H11V3H1ZM1,5H7V7H1ZM1,9H4v2H1Z"/></g></g></g></g></g></g></svg>